<svg width="117" height="45" viewBox="0 0 117 45" fill="none" xmlns="http://www.w3.org/2000/svg">
<path fill-rule="evenodd" clip-rule="evenodd" d="M116.225 16.9699C115.701 15.2968 114.972 13.783 113.947 12.4627C112.921 11.1424 111.668 10.1864 110.187 9.46932C109.765 9.24168 109.253 9.01405 108.82 8.90023C108.82 8.90023 108.66 8.80918 108.512 8.80918C108.444 8.80918 108.364 8.80918 108.284 8.72951C108.227 8.72951 108.147 8.72951 108.147 8.64983L107.065 8.4222C106.268 8.28562 105.242 8.21733 104.057 8.28562C102.303 8.36529 100.753 8.74089 99.3861 9.37827C97.905 10.1067 96.6517 11.1311 95.6263 12.3603C94.6009 13.6806 93.8717 15.126 93.3477 16.8788C92.8464 18.5406 92.6185 20.4299 92.6185 22.3193C92.6185 24.2884 92.8464 26.1094 93.3591 27.7825C93.8831 29.4557 94.6921 30.9694 95.6377 32.2214C96.3783 33.0978 97.1758 33.8149 98.1442 34.475C98.5772 34.7709 98.9417 34.9872 99.3975 35.2034H99.4544C99.4544 35.2034 99.5228 35.2034 99.5228 35.2717C99.5716 35.2717 99.5943 35.2946 99.6153 35.3159C99.6336 35.3342 99.6506 35.3514 99.6823 35.3514C100.423 35.7156 101.232 35.9205 102.109 36.0798C104.673 36.5806 106.871 36.2278 106.871 36.2278C108.045 36.0798 109.15 35.7156 110.175 35.2717C111.714 34.5433 112.955 33.5303 113.992 32.2897C115.018 31.0605 115.747 29.524 116.271 27.8508C116.772 26.1777 117 24.3566 117 22.3876C117 20.4299 116.704 18.6089 116.259 16.9244L116.225 16.9699ZM99.0557 18.5633C99.3519 17.4252 99.7165 16.3211 100.229 15.4447C100.742 14.5797 101.403 13.8513 102.132 13.3505C102.872 12.8383 103.75 12.5538 104.695 12.5538C105.652 12.5538 106.461 12.7586 107.202 13.2708C107.931 13.7716 108.512 14.409 109.025 15.2285C109.537 16.1049 109.913 17.0496 110.198 18.2105C110.506 19.3714 110.654 20.5438 110.654 21.8527V22.2852C110.654 23.5941 110.506 24.903 110.289 26.0639C109.993 27.2362 109.629 28.2492 109.116 29.137C108.603 30.002 107.942 30.6507 107.202 31.1629C106.473 31.6751 105.607 31.8914 104.638 31.8914C103.681 31.8914 102.815 31.6637 102.075 31.1629C101.334 30.6507 100.674 30.002 100.161 29.1142C99.6367 28.2492 99.2721 27.2362 98.9759 26.0639C98.6911 24.903 98.6113 23.5941 98.6113 22.2852C98.6911 21.0332 98.8392 19.7357 99.0671 18.5747L99.0557 18.5633ZM82.9798 36.4782L80.1315 39.7448L79.8353 40.0407L80.1315 44.0471H84.5293L89.1549 38.8797V22.4445L89.0182 21.1925L82.9798 24.3111V36.4782Z" fill="white"/>
<path fill-rule="evenodd" clip-rule="evenodd" d="M45.9025 7.47511L43.0475 4.30044L42.6706 4.03026L42.9675 0L47.3643 0.0675462L52.0923 5.17854V21.8062L51.9552 22.7293L45.9025 19.5771V7.47511ZM86.4214 11.9444C87.4492 13.2503 88.1801 14.7476 88.7054 16.4025L88.7283 16.3574C89.2422 18.0236 89.4706 19.8248 89.4706 21.7611C89.4706 23.7087 89.2422 25.51 88.7397 27.1648C88.2144 28.8197 87.4835 30.3395 86.4557 31.5553C85.4278 32.7824 84.1716 33.7844 82.6299 34.5049C81.6021 34.9439 80.4943 35.3042 79.318 35.4505C79.318 35.4505 77.1139 35.7995 74.5444 35.3041C73.665 35.1465 72.8542 34.9439 72.1233 34.5837C72.0818 34.5837 72.0618 34.5624 72.0426 34.542C72.0249 34.5231 72.0078 34.5049 71.9748 34.5049C71.9748 34.4373 71.8949 34.4373 71.8949 34.4373H71.8378C71.381 34.2234 71.0155 34.0095 70.5816 33.7168C69.6223 33.0639 68.8114 32.3546 68.0691 31.4878C67.1212 30.2494 66.3104 28.7522 65.7851 27.0973C65.2826 25.4424 65.0542 23.6412 65.0542 21.6936C65.0542 19.8248 65.2712 17.956 65.7737 16.3124C66.299 14.5787 67.0299 13.149 68.0577 11.8431C69.0855 10.6273 70.3417 9.61408 71.8264 8.89358C73.1968 8.26315 74.7499 7.89165 76.5087 7.81285C77.6964 7.7453 78.7242 7.81285 79.5236 7.94794L80.6085 8.17309C80.6085 8.2519 80.6884 8.2519 80.7455 8.2519C80.8369 8.3307 80.9054 8.3307 80.974 8.3307C81.1224 8.3307 81.2823 8.42076 81.2823 8.42076C81.7163 8.53334 82.2302 8.75849 82.6527 8.98365C84.1373 9.69288 85.3936 10.6385 86.4214 11.9444ZM72.74 14.8939C72.2261 15.7608 71.8606 16.8528 71.5751 17.9785L71.5865 17.9898C71.2934 19.1235 71.2117 20.3889 71.1328 21.6126L71.1297 21.6598C71.1297 22.9544 71.1982 24.2491 71.4952 25.3974C71.7921 26.5569 72.1575 27.5588 72.6714 28.4144C73.1854 29.2925 73.8477 29.9342 74.5786 30.4408C75.3209 30.9362 76.2003 31.1613 77.171 31.1613C78.1189 31.1613 79.0097 30.9474 79.7406 30.4408C80.4715 29.9342 81.1338 29.2925 81.6363 28.4369C82.1502 27.5588 82.5271 26.5569 82.8126 25.3974C83.041 24.2491 83.2009 22.9544 83.2009 21.6598V21.232C83.2009 19.9374 83.041 18.7778 82.7441 17.6296C82.4471 16.4813 82.0817 15.5469 81.5678 14.68C81.0539 13.8695 80.46 13.2391 79.7406 12.7437C78.9982 12.2371 78.1874 12.0345 77.2281 12.0345C76.2574 12.0345 75.3895 12.3159 74.6586 12.8225C73.9163 13.3179 73.2539 14.0383 72.74 14.8939ZM55.3813 7.92542H61.5482V35.7882H55.3813V7.92542Z" fill="white"/>
<path fill-rule="evenodd" clip-rule="evenodd" d="M58.4135 1.37647C56.8461 1.37647 55.574 2.66216 55.574 4.24632C55.574 5.91083 56.8461 7.18504 58.4135 7.11617C59.9809 7.11617 61.2529 5.83047 61.2529 4.24632C61.2529 2.66216 59.9809 1.37647 58.4135 1.37647ZM21.2619 13.074C22.2841 14.4056 23.011 15.9323 23.5335 17.6198L23.5562 17.5739C24.0673 19.2729 24.2945 21.1096 24.2945 23.084C24.2945 25.0699 24.0673 26.9067 23.5676 28.5941C23.0451 30.2816 22.3182 31.8313 21.296 33.0711C20.2738 34.3223 19.0244 35.344 17.4911 36.0787C16.4689 36.5264 15.3672 36.8937 14.1973 37.043C14.1973 37.043 12.0053 37.3988 9.44974 36.8937C8.57518 36.733 7.76878 36.5264 7.03051 36.159C7.00269 36.159 6.98622 36.159 6.97184 36.1536C6.95101 36.1456 6.93454 36.1262 6.89424 36.0787L6.89422 36.0787C6.89422 36.0098 6.81472 36.0098 6.81472 36.0098H6.75793C6.30361 35.7917 5.94016 35.5736 5.50856 35.2751C4.5545 34.6093 3.74809 33.8861 3.00983 33.0022C1.98763 31.7395 1.26072 30.2816 0.738261 28.5252C0.227157 26.8378 0 25.0011 0 23.0151C0 21.1096 0.227157 19.204 0.726903 17.528C1.24936 15.7602 1.97627 14.3023 2.99847 12.9707C4.02068 11.7309 5.27005 10.6977 6.74657 9.96306C8.10951 9.32021 9.65418 8.94139 11.4033 8.86104C12.5845 8.79216 13.6067 8.86104 14.4018 8.99879L15.4808 9.22838C15.4808 9.30873 15.5603 9.30873 15.6171 9.30873C15.7079 9.38909 15.7761 9.38909 15.8442 9.38909C15.9919 9.38909 16.1509 9.48093 16.1509 9.48093C16.5825 9.59572 17.0936 9.82531 17.5138 10.0549C18.9903 10.7781 20.2397 11.7424 21.2619 13.074ZM51.258 17.6198C50.7356 15.9323 50.0087 14.4056 48.9864 13.074C47.9642 11.7424 46.7149 10.7781 45.2384 10.0549C44.8181 9.82531 44.307 9.59572 43.8754 9.48093C43.8754 9.48093 43.7164 9.38909 43.5687 9.38909C43.5006 9.38909 43.4211 9.38909 43.3416 9.30873C43.2734 9.30873 43.2053 9.30873 43.2053 9.22838L42.1149 8.99879C41.3199 8.86104 40.2977 8.79216 39.1278 8.86104C37.3787 8.94139 35.834 9.32021 34.4711 9.96306C32.9946 10.6977 31.7452 11.7309 30.723 12.9707C29.7008 14.3023 28.9739 15.7602 28.4514 17.528C27.9517 19.204 27.7245 21.1096 27.7245 23.0151C27.7245 25.0011 27.9517 26.8378 28.4628 28.5252C28.9853 30.2127 29.7803 31.7395 30.7344 33.0022C31.4726 33.8861 32.2677 34.6093 33.2331 35.2751C33.6647 35.5736 34.5392 36.0098 34.5392 36.0098C34.5392 36.0098 34.6074 36.0098 34.6074 36.0787C34.6561 36.0787 34.6787 36.1018 34.6997 36.1232C34.7178 36.1417 34.7348 36.159 34.7664 36.159C35.5047 36.5264 36.2997 36.733 37.1856 36.8937C39.7411 37.3988 41.9332 37.043 41.9332 37.043C43.1031 36.8937 44.2048 36.5264 45.227 36.0787C46.7603 35.344 47.9983 34.3223 49.0319 33.0711C50.0541 31.8313 50.781 30.2816 51.3035 28.5941C51.8032 26.9067 52.019 25.0699 52.019 23.084C52.019 21.1096 51.7351 19.2729 51.2921 17.5739L51.258 17.6198ZM34.1417 19.2269C34.437 18.079 34.8005 16.9655 35.3116 16.0816C35.8227 15.2091 36.4814 14.4745 37.2083 13.9694C37.9466 13.4528 38.8212 13.1658 39.7639 13.1658C40.7179 13.1658 41.5243 13.3724 42.2626 13.889C42.9895 14.3941 43.5687 15.037 44.0798 15.8635C44.5909 16.7474 44.9544 17.7002 45.2497 18.8711C45.5564 20.042 45.704 21.2243 45.704 22.5445V22.9807C45.704 24.3008 45.5564 25.621 45.3406 26.7919C45.0453 27.9742 44.6818 28.9959 44.1707 29.8913C43.6596 30.7637 43.0008 31.4181 42.2626 31.9346C41.5357 32.4512 40.6725 32.6693 39.7071 32.6693C38.753 32.6693 37.8898 32.4397 37.1515 31.9346C36.4133 31.4181 35.7545 30.7637 35.2434 29.8683C34.721 28.9959 34.3575 27.9742 34.0622 26.7919C33.7783 25.621 33.6988 24.3008 33.6988 22.9807C33.7783 21.718 33.9259 20.4093 34.1531 19.2384L34.1417 19.2269ZM6.49669 19.2269C6.78064 18.079 7.14409 16.9655 7.6552 16.0816C8.1663 15.2091 8.82506 14.4745 9.56332 13.9694C10.2902 13.4528 11.1534 13.1658 12.1188 13.1658C13.0729 13.1658 13.8793 13.3724 14.6176 13.889C15.3331 14.3941 15.9237 15.037 16.4348 15.8635C16.9459 16.7474 17.3094 17.7002 17.6047 18.8711C17.9 20.042 18.059 21.2243 18.059 22.5445L18.0363 22.9807C18.0363 24.3008 17.9 25.621 17.6728 26.7919C17.3889 27.9742 17.0141 28.9959 16.503 29.8913C16.0032 30.7637 15.3445 31.4181 14.6176 31.9346C13.8907 32.4512 13.0047 32.6693 12.062 32.6693C11.0966 32.6693 10.2221 32.4397 9.48381 31.9346C8.75691 31.4181 8.09815 30.7637 7.58705 29.8683C7.13273 29.1451 6.792 28.1235 6.48534 26.8837C6.19003 25.7013 6.11053 24.3582 6.11053 23.0496C6.11053 21.7294 6.19003 20.4093 6.47398 19.2384L6.49669 19.2269Z" fill="white"/>
</svg>
